<mxfile host="app.diagrams.net" modified="2024-04-19T07:07:55.693Z" agent="Mozilla/5.0 (Windows NT 10.0; Win64; x64) AppleWebKit/537.36 (KHTML, like Gecko) Chrome/123.0.0.0 Safari/537.36 OPR/109.0.0.0" version="24.2.5" etag="3feUTnpm9mYZE53dLyp7" type="github">
  <diagram name="Strona-1" id="fjOJgnHYhJWx10o1X0Ai">
    <mxGraphModel>
      <root>
        <mxCell id="0" />
        <mxCell id="1" parent="0" />
      </root>
    </mxGraphModel>
  </diagram>
</mxfile>
